# xmcd
#
# Track frame offsets: 
#        150
#        12125
#        24122
#        35750
#        47975
#        62087
#        72850
#        85972
#        97227
#        112237
#        123575
#        135065
#        148930
#        163452
#        175962
#        187312
#        199275
#        212460
#        225865
#        247542
#        260787
#        273315
#        289887
#        300730
#        308845
#        326835
#
# Disc length: 4529 seconds
#
# Revision: 9
# Processed by: cddbd v1.5.2PL0 Copyright (c) Steve Scherf et al.
# Submitted via: ExactAudioCopyFreeDBPlugin 1.0
#
DISCID=8911af1a
DTITLE=The Temptations - The Temptations:  Emperors of Soul [box set]
DYEAR=1994
DGENRE=Soul
TTITLE0=Get Ready
TTITLE1=Fading Away
TTITLE2=Ain't Too Proud to Beg
TTITLE3=Too Busy Thinking About My Baby
TTITLE4=Who You Gonna Run To
TTITLE5=Beauty is Only Skin Deep
TTITLE6=I Got Heaven Right Here on Earth
TTITLE7=(I Know) I'm Losing You
TTITLE8=All I Need
TTITLE9=Sorry is a Sorry Word
TTITLE10=I'm Doing it All
TTITLE11=No More Water in the Well
TTITLE12=You're My Everything
TTITLE13=Just One Last Look
TTITLE14=Angel Doll
TTITLE15=(Loneliness Made Me Realize) It's You That I Need
TTITLE16=Don't Send Me Away
TTITLE17=Hello Young Lovers
TTITLE18=Ol' Man River
TTITLE19=I Wish it Would Rain
TTITLE20=I Truly Truly Believe
TTITLE21=I Could Never Love Another (After Loving You)
TTITLE22=Please Return Your Love to Me
TTITLE23=How Can I Forget
TTITLE24=For Once In My Life (live)
TTITLE25=My Girl (vocal track only)
EXTD=
EXTT0=
EXTT1=
EXTT2=
EXTT3=
EXTT4=
EXTT5=
EXTT6=
EXTT7=
EXTT8=
EXTT9=
EXTT10=
EXTT11=
EXTT12=
EXTT13=
EXTT14=
EXTT15=
EXTT16=
EXTT17=
EXTT18=
EXTT19=
EXTT20=
EXTT21=
EXTT22=
EXTT23=
EXTT24=
EXTT25=
PLAYORDER=
